<svg xmlns="http://www.w3.org/2000/svg" version="1.0" width="430.765240" height="143.984717" preserveAspectRatio="xMidYMid meet" style=""><rect id="backgroundrect" width="100%" height="100%" x="0" y="0" fill="none" stroke="none"/>
<metadata>
Created by potrace 1.12, written by Peter Selinger 2001-2015
</metadata>
<g fill="#000088" stroke="none">
<g transform='translate(215 75)'>
<path d="M3.080448274018238,-67.07903013920935 c1.89996864195512,3.8999356334868267 2.599957088991217,4.499925730946337 5.2999125275590195,4.499925730946337 c2.0999653411082906,0 3.79993728391024,-0.8999851461892676 5.599907576288775,-2.999950487297558 c4.199930682216581,-4.9999174788292615 7.199881169514139,-3.399943885603899 7.299879519090725,3.6999389343336553 c0,1.499975243648779 0.9999834957658521,2.7999537881443874 2.999950487297558,3.79993728391024 c2.7999537881443874,1.499975243648779 3.1999471864507285,1.3999768940721937 6.799887771207798,-0.9999834957658521 c5.499909226712189,-3.5999405847570696 7.3998778686673115,-2.599957088991217 6.5998910720546275,3.399943885603899 c-0.4999917478829266,3.8999356334868267 -0.2999950487297558,4.8999191292526785 1.499975243648779,6.5998910720546275 c1.9999669915317053,1.6999719428019495 2.599957088991217,1.799970292378536 6.799887771207798,0.6999884470360979 c5.999900974595116,-1.6999719428019495 7.999867966126821,-0.3999933983063414 5.7999042754419445,3.8999356334868267 c-1.89996864195512,3.5999405847570696 -1.89996864195512,5.89990262501853 0.0999983495765855,8.699856413162918 c1.3999768940721937,1.9999669915317053 2.299962040261461,2.299962040261461 6.1998976737482865,1.9999669915317053 c5.7999042754419445,-0.3999933983063414 6.5998910720546275,1.5999735932253643 2.699955438567802,6.5998910720546275 c-2.4999587394146316,3.2999455360273138 -2.599957088991217,3.5999405847570696 -0.9999834957658521,6.499892722478043 c1.1999801949190232,2.3999603898380464 2.3999603898380464,3.1999471864507285 5.499909226712189,3.6999389343336553 c5.399910877135604,0.8999851461892676 5.999900974595116,3.1999471864507285 1.5999735932253643,6.699889421631212 c-2.8999521377209727,2.299962040261461 -3.5999405847570696,3.5999405847570696 -3.5999405847570696,6.299896023324871 c0,2.8999521377209727 0.4999917478829266,3.5999405847570696 3.9999339830634106,5.399910877135604 c2.199963690684876,1.099981845342438 3.9999339830634106,2.699955438567802 3.9999339830634106,3.5999405847570696 c0,0.7999867966126821 -1.9999669915317053,2.299962040261461 -4.3999273813697535,3.2999455360273138 c-5.89990262501853,2.599957088991217 -6.699889421631212,6.299896023324871 -2.4999587394146316,10.599825055118039 c4.699922430099507,4.9999174788292615 3.5999405847570696,7.4998762182438945 -3.4999422351804843,7.4998762182438945 c-2.4999587394146316,0 -3.4999422351804843,0.5999900974595128 -4.3999273813697535,2.4999587394146316 c-1.5999735932253643,3.4999422351804843 -1.499975243648779,4.199930682216581 0.8999851461892676,7.59987456782048 c3.1999471864507285,4.499925730946337 1.89996864195512,6.299896023324871 -3.9999339830634106,5.599907576288775 c-4.199930682216581,-0.4999917478829266 -5.199914177982434,-0.2999950487297558 -7.099882819937553,1.799970292378536 c-1.9999669915317053,2.0999653411082906 -2.0999653411082906,2.699955438567802 -0.9999834957658521,5.999900974595116 c2.0999653411082906,6.399894372901457 0.0999983495765855,7.8998696165502365 -6.399894372901457,4.799920779676093 c-3.1999471864507285,-1.499975243648779 -3.6999389343336553,-1.499975243648779 -5.999900974595116,0 c-1.9999669915317053,1.2999785444956085 -2.599957088991217,2.599957088991217 -2.7999537881443874,6.399894372901457 c-0.19999669915317086,3.8999356334868267 -0.6999884470360979,4.8999191292526785 -2.299962040261461,5.099915828405848 c-1.1999801949190232,0.19999669915317086 -3.0999488368741432,-0.7999867966126821 -4.499925730946337,-2.299962040261461 c-4.099932332639996,-4.3999273813697535 -8.799854762739503,-2.999950487297558 -10.499826705541453,3.1999471864507285 c-1.499975243648779,5.2999125275590195 -4.499925730946337,5.599907576288775 -7.299879519090725,0.8999851461892676 c-1.799970292378536,-2.999950487297558 -2.699955438567802,-3.5999405847570696 -5.399910877135604,-3.5999405847570696 c-2.7999537881443874,0 -3.6999389343336553,0.5999900974595128 -5.7999042754419445,3.9999339830634106 c-1.3999768940721937,2.199963690684876 -2.699955438567802,3.9999339830634106 -2.999950487297558,3.9999339830634106 c-1.5999735932253643,-0.0999983495765855 -3.0999488368741432,-1.9999669915317053 -4.299929031793166,-5.499909226712189 c-1.9999669915317053,-5.7999042754419445 -5.499909226712189,-6.5998910720546275 -10.499826705541453,-2.4999587394146316 c-5.199914177982434,4.099932332639996 -7.199881169514139,3.2999455360273138 -7.199881169514139,-2.8999521377209727 c0,-4.099932332639996 -0.3999933983063414,-4.9999174788292615 -2.4999587394146316,-6.099899324171702 c-2.199963690684876,-1.1999801949190232 -2.999950487297558,-1.099981845342438 -5.999900974595116,0.2999950487297558 c-6.499892722478043,3.0999488368741432 -8.199864665279993,1.9999669915317053 -6.499892722478043,-4.3999273813697535 c0.9999834957658521,-3.6999389343336553 0.8999851461892676,-4.299929031793166 -1.099981845342438,-6.499892722478043 c-2.299962040261461,-2.3999603898380464 -3.6999389343336553,-2.599957088991217 -9.999834957658527,-0.7999867966126821 c-2.699955438567802,0.6999884470360979 -2.999950487297558,-2.3999603898380464 -0.8999851461892676,-6.699889421631212 c1.89996864195512,-3.5999405847570696 1.89996864195512,-4.099932332639996 0.4999917478829266,-6.899886120784384 c-1.3999768940721937,-2.699955438567802 -2.0999653411082906,-2.999950487297558 -6.099899324171702,-2.999950487297558 c-5.999900974595116,0 -6.699889421631212,-1.9999669915317053 -2.3999603898380464,-6.499892722478043 c2.999950487297558,-3.0999488368741432 3.1999471864507285,-3.79993728391024 2.3999603898380464,-6.5998910720546275 c-0.6999884470360979,-2.599957088991217 -1.799970292378536,-3.4999422351804843 -5.199914177982434,-4.699922430099507 c-5.399910877135604,-1.799970292378536 -5.499909226712189,-4.099932332639996 -0.19999669915317086,-7.099882819937553 c3.399943885603899,-1.89996864195512 3.9999339830634106,-2.699955438567802 3.9999339830634106,-5.599907576288775 c0,-2.699955438567802 -0.5999900974595128,-3.6999389343336553 -3.4999422351804843,-5.499909226712189 c-5.099915828405848,-3.1999471864507285 -4.3999273813697535,-6.999884470360969 1.3999768940721937,-6.999884470360969 c2.4999587394146316,0 4.8999191292526785,-2.0999653411082906 5.599907576288775,-5.099915828405848 c0.4999917478829266,-1.89996864195512 0,-3.399943885603899 -1.9999669915317053,-5.7999042754419445 c-3.6999389343336553,-4.299929031793166 -2.7999537881443874,-6.099899324171702 3.2999455360273138,-6.099899324171702 c4.199930682216581,0 4.9999174788292615,-0.3999933983063414 6.399894372901457,-2.7999537881443874 c1.5999735932253643,-2.599957088991217 1.499975243648779,-2.999950487297558 -0.19999669915317086,-6.899886120784384 c-2.3999603898380464,-5.499909226712189 -0.9999834957658521,-6.999884470360969 4.8999191292526785,-5.199914177982434 c3.399943885603899,0.9999834957658521 4.3999273813697535,0.8999851461892676 6.5998910720546275,-0.4999917478829266 c2.4999587394146316,-1.5999735932253643 2.599957088991217,-2.0999653411082906 1.9999669915317053,-6.5998910720546275 c-0.7999867966126821,-6.1998976737482865 0.4999917478829266,-6.999884470360969 6.1998976737482865,-3.8999356334868267 c3.9999339830634106,2.199963690684876 4.499925730946337,2.299962040261461 7.099882819937553,0.8999851461892676 c2.0999653411082906,-1.2999785444956085 2.7999537881443874,-2.4999587394146316 3.1999471864507285,-5.999900974595116 c0.5999900974595128,-5.699905925865361 2.4999587394146316,-6.099899324171702 6.799887771207798,-1.6999719428019495 c2.699955438567802,2.7999537881443874 3.79993728391024,3.1999471864507285 6.799887771207798,2.8999521377209727 c2.999950487297558,-0.3999933983063414 3.79993728391024,-1.099981845342438 5.699905925865361,-4.799920779676093 c1.1999801949190232,-2.4999587394146316 2.7999537881443874,-4.3999273813697535 3.6999389343336553,-4.3999273813697535 c0.8999851461892676,0 2.4999587394146316,1.9999669915317053 3.79993728391024,4.499925730946337 zm-2.299962040261461,13.49977719283901 c0,0.9999834957658521 0.7999867966126821,1.3999768940721937 2.3999603898380464,1.1999801949190232 c1.5999735932253643,-0.0999983495765855 2.199963690684876,0.19999669915317086 1.799970292378536,1.099981845342438 c-0.7999867966126821,2.0999653411082906 3.5999405847570696,5.599907576288775 9.599841559352186,7.59987456782048 c6.899886120784384,2.3999603898380464 9.199848161045844,3.5999405847570696 13.999768940721937,7.3998778686673115 l3.79993728391024,2.999950487297558 l2.999950487297558,-2.7999537881443874 c2.7999537881443874,-2.699955438567802 2.7999537881443874,-2.8999521377209727 1.099981845342438,-4.799920779676093 c-4.9999174788292615,-5.599907576288775 -17.899704574208762,-11.999801949190232 -27.499546133560948,-13.599775542415596 c-6.5998910720546275,-1.099981845342438 -8.199864665279993,-0.8999851461892676 -8.199864665279993,0.8999851461892676 zm-19.79967321616388,1.499975243648779 c-6.999884470360969,2.3999603898380464 -15.099750786064375,7.099882819937553 -18.199699622938518,10.599825055118039 c-1.799970292378536,1.89996864195512 -1.799970292378536,2.0999653411082906 1.2999785444956085,5.199914177982434 l3.1999471864507285,3.0999488368741432 l2.699955438567802,-2.199963690684876 c1.5999735932253643,-1.1999801949190232 5.2999125275590195,-3.4999422351804843 8.399861364433162,-5.199914177982434 c5.099915828405848,-2.599957088991217 7.8998696165502365,-3.4999422351804843 17.199716127172664,-5.499909226712189 c1.5999735932253643,-0.2999950487297558 2.699955438567802,-1.099981845342438 2.3999603898380464,-1.799970292378536 c-0.19999669915317086,-0.6999884470360979 0,-1.9999669915317053 0.4999917478829266,-2.999950487297558 c0.4999917478829266,-0.9999834957658521 0.6999884470360979,-2.4999587394146316 0.3999933983063414,-3.2999455360273138 c-0.6999884470360979,-1.9999669915317053 -8.699856413162918,-0.9999834957658521 -17.899704574208762,2.0999653411082906 zm6.299896023324871,9.699839908928771 c-4.8999191292526785,1.499975243648779 -14.499760688604864,6.5998910720546275 -16.599726029713153,8.899853112316089 c-1.6999719428019495,1.89996864195512 -1.6999719428019495,2.0999653411082906 1.2999785444956085,5.099915828405848 l3.0999488368741432,3.0999488368741432 l3.9999339830634106,-3.1999471864507285 c3.79993728391024,-3.0999488368741432 14.199765639875107,-7.099882819937553 18.299697972515105,-7.099882819937553 c1.499975243648779,0 1.89996864195512,-0.6999884470360979 1.89996864195512,-3.79993728391024 c0,-2.0999653411082906 -0.2999950487297558,-4.199930682216581 -0.6999884470360979,-4.499925730946337 c-0.6999884470360979,-0.7999867966126821 -5.89990262501853,-0.0999983495765855 -11.299813502154135,1.499975243648779 zm31.8994735149307,4.3999273813697535 c1.6999719428019495,1.3999768940721937 3.0999488368741432,3.0999488368741432 3.0999488368741432,3.79993728391024 c0,0.6999884470360979 1.099981845342438,2.299962040261461 2.4999587394146316,3.5999405847570696 c2.3999603898380464,2.199963690684876 2.699955438567802,2.299962040261461 4.199930682216581,0.6999884470360979 c2.0999653411082906,-1.9999669915317053 0.7999867966126821,-3.6999389343336553 -5.699905925865361,-7.799871266973651 c-5.599907576288775,-3.5999405847570696 -8.199864665279993,-3.79993728391024 -4.099932332639996,-0.2999950487297558 zm-18.499694671668273,1.099981845342438 c1.099981845342438,1.099981845342438 1.89996864195512,-0.5999900974595128 1.099981845342438,-2.3999603898380464 c-0.7999867966126821,-1.6999719428019495 -0.7999867966126821,-1.6999719428019495 -1.1999801949190232,0 c-0.2999950487297558,0.9999834957658521 -0.19999669915317086,2.0999653411082906 0.0999983495765855,2.3999603898380464 zm35.89940749799411,1.499975243648779 c-1.2999785444956085,1.1999801949190232 -2.299962040261461,2.4999587394146316 -2.299962040261461,2.999950487297558 c0,0.3999933983063414 1.499975243648779,2.8999521377209727 3.399943885603899,5.599907576288775 c4.3999273813697535,5.999900974595116 7.3998778686673115,13.699773891992182 8.199864665279993,20.69965836235315 l0.6999884470360979,5.499909226712189 l4.299929031793166,0 c3.9999339830634106,0 4.3999273813697535,-0.19999669915317086 4.3999273813697535,-2.4999587394146316 c0,-8.199864665279993 -5.999900974595116,-23.499612150497537 -11.999801949190232,-30.799491669588264 c-1.6999719428019495,-1.9999669915317053 -3.399943885603899,-3.6999389343336553 -3.79993728391024,-3.6999389343336553 c-0.2999950487297558,0 -1.5999735932253643,0.9999834957658521 -2.8999521377209727,2.199963690684876 zm-81.09866150661065,1.499975243648779 c-5.599907576288775,7.199881169514139 -9.699839908928771,17.399712826325835 -10.799821754271209,27.299549434407776 l-0.6999884470360979,5.999900974595116 l4.599924080522922,0 c4.499925730946337,0 4.599924080522922,-0.0999983495765855 5.199914177982434,-3.79993728391024 c1.499975243648779,-8.799854762739503 3.9999339830634106,-15.599742533947301 7.59987456782048,-20.799656711929735 c2.199963690684876,-2.999950487297558 3.8999356334868267,-5.999900974595116 3.8999356334868267,-6.5998910720546275 c0,-1.5999735932253643 -4.099932332639996,-5.7999042754419445 -5.599907576288775,-5.7999042754419445 c-0.6999884470360979,0 -2.599957088991217,1.6999719428019495 -4.199930682216581,3.6999389343336553 zm32.09947021408387,2.4999587394146316 c-1.499975243648779,0.6999884470360979 -4.799920779676093,2.4999587394146316 -7.199881169514139,4.099932332639996 l-4.299929031793166,2.8999521377209727 l2.999950487297558,3.0999488368741432 l2.999950487297558,2.999950487297558 l2.999950487297558,-2.199963690684876 c1.6999719428019495,-1.099981845342438 3.4999422351804843,-2.0999653411082906 4.099932332639996,-2.0999653411082906 c0.5999900974595128,0 1.9999669915317053,-0.8999851461892676 3.0999488368741432,-1.9999669915317053 c1.099981845342438,-1.099981845342438 1.9999669915317053,-1.5999735932253643 1.9999669915317053,-0.9999834957658521 c0,1.1999801949190232 3.6999389343336553,1.2999785444956085 4.3999273813697535,0.19999669915317086 c0.6999884470360979,-1.2999785444956085 -4.599924080522922,-7.099882819937553 -6.5998910720546275,-7.099882819937553 c-0.8999851461892676,-0.0999983495765855 -2.999950487297558,0.3999933983063414 -4.499925730946337,1.099981845342438 zm41.59931342385947,10.999818453424378 c3.6999389343336553,5.499909226712189 5.099915828405848,8.899853112316089 5.999900974595116,14.79975573733462 c0.5999900974595128,4.499925730946337 0.5999900974595128,4.499925730946337 4.9999174788292615,4.799920779676093 l4.3999273813697535,0.2999950487297558 l-0.6999884470360979,-5.7999042754419445 c-0.6999884470360979,-6.499892722478043 -4.8999191292526785,-16.199732631406814 -9.099849811469259,-21.09965176065949 l-2.7999537881443874,-3.399943885603899 l-2.8999521377209727,2.999950487297558 l-2.8999521377209727,2.8999521377209727 l2.999950487297558,4.499925730946337 zm-65.8989123709697,-4.499925730946337 c-3.8999356334868267,6.099899324171702 -6.899886120784384,14.199765639875107 -7.199881169514139,19.499678167434126 l-0.2999950487297558,4.299929031793166 l3.9999339830634106,0.2999950487297558 l3.9999339830634106,0.2999950487297558 l1.1999801949190232,-6.099899324171702 c0.9999834957658521,-5.2999125275590195 3.1999471864507285,-10.099833307235112 7.4998762182438945,-16.199732631406814 c0.9999834957658521,-1.3999768940721937 0.7999867966126821,-2.199963690684876 -1.1999801949190232,-4.299929031793166 c-1.2999785444956085,-1.3999768940721937 -2.999950487297558,-2.4999587394146316 -3.6999389343336553,-2.4999587394146316 c-0.6999884470360979,0 -2.699955438567802,2.0999653411082906 -4.299929031793166,4.699922430099507 zm37.9993728391024,-0.7999867966126821 c0.7999867966126821,0.3999933983063414 3.0999488368741432,1.099981845342438 5.099915828405848,1.499975243648779 c2.0999653411082906,0.3999933983063414 5.399910877135604,1.799970292378536 7.4998762182438945,3.1999471864507285 l3.6999389343336553,2.4999587394146316 l2.4999587394146316,-2.3999603898380464 l2.4999587394146316,-2.4999587394146316 l-2.599957088991217,-1.3999768940721937 c-2.8999521377209727,-1.499975243648779 -21.199650110236078,-2.3999603898380464 -18.699691370821444,-0.8999851461892676 zm-0.4999917478829266,6.5998910720546275 c0,3.5999405847570696 0.2999950487297558,4.199930682216581 4.299929031793166,6.299896023324871 l4.299929031793166,2.3999603898380464 l2.999950487297558,-2.7999537881443874 c1.5999735932253643,-1.499975243648779 2.8999521377209727,-3.399943885603899 2.8999521377209727,-4.099932332639996 c0,-1.6999719428019495 -9.799838258505357,-6.399894372901457 -12.499793697073159,-6.099899324171702 c-1.5999735932253643,0.2999950487297558 -1.9999669915317053,1.099981845342438 -1.9999669915317053,4.299929031793166 zm-7.8998696165502365,-2.999950487297558 c-1.9999669915317053,0.7999867966126821 -3.5999405847570696,1.89996864195512 -3.5999405847570696,2.4999587394146316 c0,1.799970292378536 2.0999653411082906,2.0999653411082906 4.9999174788292615,0.5999900974595128 c1.6999719428019495,-0.7999867966126821 2.999950487297558,-0.9999834957658521 2.999950487297558,-0.4999917478829266 c0,0.4999917478829266 0.3999933983063414,0.8999851461892676 0.9999834957658521,0.8999851461892676 c1.3999768940721937,0 1.1999801949190232,-3.6999389343336553 -0.2999950487297558,-4.299929031793166 c-0.5999900974595128,-0.2999950487297558 -1.2999785444956085,-0.5999900974595128 -1.2999785444956085,-0.5999900974595128 c-0.0999983495765855,-0.0999983495765855 -1.799970292378536,0.5999900974595128 -3.79993728391024,1.3999768940721937 zm26.39956428821851,4.799920779676093 c0,0.4999917478829266 0.7999867966126821,2.0999653411082906 1.89996864195512,3.4999422351804843 c0.9999834957658521,1.499975243648779 2.3999603898380464,4.499925730946337 3.0999488368741432,6.699889421631212 c1.2999785444956085,3.9999339830634106 1.2999785444956085,3.9999339830634106 2.199963690684876,1.2999785444956085 c0.9999834957658521,-2.7999537881443874 3.2999455360273138,-4.299929031793166 4.299929031793166,-2.7999537881443874 c0.3999933983063414,0.5999900974595128 0.9999834957658521,0.9999834957658521 1.499975243648779,0.9999834957658521 c2.199963690684876,0 -4.499925730946337,-13.29978049368584 -7.199881169514139,-14.299763989451693 c-1.3999768940721937,-0.4999917478829266 -5.7999042754419445,2.999950487297558 -5.7999042754419445,4.599924080522922 zm-47.29921934972483,-1.499975243648779 c-2.8999521377209727,4.3999273813697535 -5.699905925865361,12.099800298766818 -5.699905925865361,15.699740883523887 c0,2.199963690684876 0.3999933983063414,2.4999587394146316 3.8999356334868267,2.4999587394146316 c3.8999356334868267,0 5.099915828405848,-1.099981845342438 5.099915828405848,-4.799920779676093 c0,-0.8999851461892676 1.1999801949190232,-3.9999339830634106 2.699955438567802,-6.899886120784384 l2.599957088991217,-5.2999125275590195 l-2.299962040261461,-2.4999587394146316 c-1.2999785444956085,-1.3999768940721937 -2.699955438567802,-2.4999587394146316 -2.999950487297558,-2.4999587394146316 c-0.3999933983063414,0 -1.89996864195512,1.6999719428019495 -3.2999455360273138,3.79993728391024 zm41.899308472589226,6.099899324171702 c-2.699955438567802,2.7999537881443874 -2.699955438567802,2.8999521377209727 -1.2999785444956085,7.199881169514139 c1.2999785444956085,3.8999356334868267 1.799970292378536,4.3999273813697535 4.799920779676093,4.499925730946337 c4.199930682216581,0.19999669915317086 6.299896023324871,-1.799970292378536 5.399910877135604,-5.399910877135604 c-0.7999867966126821,-3.0999488368741432 -4.299929031793166,-9.199848161045844 -5.399910877135604,-9.199848161045844 c-0.3999933983063414,0 -1.9999669915317053,1.2999785444956085 -3.4999422351804843,2.8999521377209727 zm-35.9994058475707,4.8999191292526785 c-2.3999603898380464,6.899886120784384 -2.199963690684876,7.199881169514139 3.1999471864507285,7.199881169514139 c4.699922430099507,0 4.8999191292526785,-0.0999983495765855 5.999900974595116,-3.5999405847570696 c0.8999851461892676,-2.999950487297558 0.7999867966126821,-3.8999356334868267 -0.3999933983063414,-5.099915828405848 c-0.6999884470360979,-0.7999867966126821 -1.3999768940721937,-1.9999669915317053 -1.3999768940721937,-2.699955438567802 c0,-0.5999900974595128 -0.4999917478829266,-1.6999719428019495 -1.1999801949190232,-2.3999603898380464 c-1.6999719428019495,-1.6999719428019495 -4.299929031793166,0.9999834957658521 -6.1998976737482865,6.5998910720546275 zm22.299631955578516,-1.1999801949190232 c-1.1999801949190232,3.2999455360273138 -0.4999917478829266,4.299929031793166 1.099981845342438,1.499975243648779 c1.1999801949190232,-2.299962040261461 3.2999455360273138,-1.9999669915317053 2.3999603898380464,0.3999933983063414 c-0.7999867966126821,1.89996864195512 -3.399943885603899,2.699955438567802 -4.8999191292526785,1.499975243648779 c-0.9999834957658521,-0.7999867966126821 -1.9999669915317053,-0.3999933983063414 -3.9999339830634106,1.499975243648779 c-3.399943885603899,2.999950487297558 -4.499925730946337,3.1999471864507285 -3.79993728391024,0.4999917478829266 c0.5999900974595128,-2.3999603898380464 -1.1999801949190232,-2.699955438567802 -2.0999653411082906,-0.3999933983063414 c-1.099981845342438,2.8999521377209727 -0.5999900974595128,4.3999273813697535 1.3999768940721937,4.3999273813697535 c1.099981845342438,0 1.9999669915317053,0.3999933983063414 1.9999669915317053,0.9999834957658521 c0,1.2999785444956085 3.1999471864507285,4.499925730946337 4.499925730946337,4.499925730946337 c0.4999917478829266,0 1.499975243648779,-0.3999933983063414 2.0999653411082906,-0.7999867966126821 c0.6999884470360979,-0.3999933983063414 1.89996864195512,0.3999933983063414 2.7999537881443874,1.799970292378536 c1.89996864195512,2.7999537881443874 3.2999455360273138,2.4999587394146316 4.599924080522922,-0.9999834957658521 c0.4999917478829266,-1.2999785444956085 1.89996864195512,-2.4999587394146316 3.1999471864507285,-2.699955438567802 c1.9999669915317053,-0.2999950487297558 2.299962040261461,-0.7999867966126821 2.0999653411082906,-4.299929031793166 c-0.19999669915317086,-3.0999488368741432 -0.9999834957658521,-4.699922430099507 -3.79993728391024,-7.299879519090725 c-4.199930682216581,-3.8999356334868267 -6.1998976737482865,-4.099932332639996 -7.59987456782048,-0.5999900974595128 zm-2.8999521377209727,0.3999933983063414 c1.799970292378536,1.099981845342438 2.3999603898380464,0.5999900974595128 1.5999735932253643,-1.5999735932253643 c-0.4999917478829266,-1.3999768940721937 -0.8999851461892676,-1.499975243648779 -1.89996864195512,-0.4999917478829266 c-0.8999851461892676,0.8999851461892676 -0.8999851461892676,1.3999768940721937 0.2999950487297558,2.0999653411082906 zm49.19918799167995,12.499793697073159 c-0.4999917478829266,4.8999191292526785 -4.099932332639996,17.599709525479007 -5.399910877135604,19.399679817857542 c-0.5999900974595128,0.8999851461892676 -2.7999537881443874,3.2999455360273138 -4.699922430099507,5.2999125275590195 l-3.4999422351804843,3.79993728391024 l3.399943885603899,3.4999422351804843 l3.399943885603899,3.4999422351804843 l2.7999537881443874,-3.2999455360273138 c4.599924080522922,-5.399910877135604 10.499826705541453,-17.899704574208762 11.79980525003706,-25.499579142029244 c1.5999735932253643,-8.999851461892675 1.099981845342438,-10.399828355964868 -3.6999389343336553,-9.999834957658527 c-3.399943885603899,0.2999950487297558 -3.79993728391024,0.5999900974595128 -4.099932332639996,3.2999455360273138 zm-10.999818453424378,-1.1999801949190232 c-0.19999669915317086,1.099981845342438 -0.0999983495765855,3.399943885603899 0.2999950487297558,5.2999125275590195 c0.3999933983063414,2.4999587394146316 1.099981845342438,3.399943885603899 2.4999587394146316,3.399943885603899 c0.9999834957658521,0 2.299962040261461,0.7999867966126821 2.7999537881443874,1.6999719428019495 c0.7999867966126821,1.3999768940721937 1.1999801949190232,0.9999834957658521 2.0999653411082906,-2.299962040261461 c0.5999900974595128,-2.0999653411082906 1.099981845342438,-5.399910877135604 1.099981845342438,-7.199881169514139 c0,-3.2999455360273138 0,-3.2999455360273138 -4.199930682216581,-2.999950487297558 c-3.1999471864507285,0.19999669915317086 -4.3999273813697535,0.7999867966126821 -4.599924080522922,2.0999653411082906 zm-21.499645158965834,-1.5999735932253643 c-0.3999933983063414,0.2999950487297558 -0.19999669915317086,1.1999801949190232 0.4999917478829266,1.9999669915317053 c0.7999867966126821,1.099981845342438 0.6999884470360979,1.6999719428019495 -0.7999867966126821,2.7999537881443874 c-1.89996864195512,1.3999768940721937 -1.89996864195512,1.3999768940721937 0.0999983495765855,1.499975243648779 c1.9999669915317053,0 4.8999191292526785,-4.499925730946337 3.8999356334868267,-6.099899324171702 c-0.5999900974595128,-1.099981845342438 -2.7999537881443874,-1.1999801949190232 -3.6999389343336553,-0.19999669915317086 zm-36.899390993759965,3.0999488368741432 c0.2999950487297558,4.799920779676093 4.099932332639996,11.899803599613646 5.2999125275590195,10.099833307235112 c0.6999884470360979,-1.099981845342438 0.8999851461892676,-1.099981845342438 0.8999851461892676,-0.0999983495765855 c0,0.6999884470360979 0.3999933983063414,0.9999834957658521 0.9999834957658521,0.6999884470360979 c0.4999917478829266,-0.2999950487297558 0.9999834957658521,-1.499975243648779 0.9999834957658521,-2.599957088991217 c0,-1.099981845342438 0.6999884470360979,-1.89996864195512 1.5999735932253643,-1.89996864195512 c0.9999834957658521,0 1.3999768940721937,-0.6999884470360979 1.1999801949190232,-2.299962040261461 c-0.19999669915317086,-1.5999735932253643 -0.8999851461892676,-2.0999653411082906 -2.199963690684876,-1.89996864195512 c-1.6999719428019495,0.2999950487297558 -1.799970292378536,0.19999669915317086 -0.6999884470360979,-1.1999801949190232 c2.3999603898380464,-2.7999537881443874 0.5999900974595128,-4.699922430099507 -4.099932332639996,-4.3999273813697535 c-4.199930682216581,0.2999950487297558 -4.299929031793166,0.3999933983063414 -3.9999339830634106,3.5999405847570696 zm-10.099833307235112,1.099981845342438 c0.19999669915317086,5.099915828405848 4.199930682216581,13.599775542415596 6.299896023324871,13.599775542415596 c0.7999867966126821,0 1.3999768940721937,0.7999867966126821 1.1999801949190232,1.6999719428019495 c-0.4999917478829266,2.8999521377209727 1.3999768940721937,2.7999537881443874 4.199930682216581,-0.0999983495765855 l2.699955438567802,-2.7999537881443874 l-2.3999603898380464,-3.6999389343336553 c-1.3999768940721937,-1.89996864195512 -2.999950487297558,-5.89990262501853 -3.6999389343336553,-8.599858063586332 c-1.1999801949190232,-5.099915828405848 -1.2999785444956085,-5.099915828405848 -4.8999191292526785,-4.799920779676093 c-3.5999405847570696,0.2999950487297558 -3.5999405847570696,0.2999950487297558 -3.399943885603899,4.699922430099507 zm-10.599825055118039,-3.4999422351804843 c-1.1999801949190232,1.499975243648779 -0.19999669915317086,8.199864665279993 2.0999653411082906,13.999768940721937 c1.099981845342438,2.8999521377209727 1.1999801949190232,2.8999521377209727 1.9999669915317053,0.5999900974595128 l0.8999851461892676,-2.299962040261461 l2.8999521377209727,2.7999537881443874 c1.6999719428019495,1.5999735932253643 2.999950487297558,3.1999471864507285 2.999950487297558,3.5999405847570696 c0,1.3999768940721937 5.099915828405848,5.89990262501853 5.999900974595116,5.399910877135604 c0.5999900974595128,-0.2999950487297558 -0.5999900974595128,-2.8999521377209727 -2.4999587394146316,-5.599907576288775 c-3.2999455360273138,-4.799920779676093 -6.499892722478043,-13.199782144109255 -6.499892722478043,-16.89972107844291 c0,-0.8999851461892676 -0.2999950487297558,-1.9999669915317053 -0.6999884470360979,-2.299962040261461 c-1.1999801949190232,-1.1999801949190232 -5.999900974595116,-0.6999884470360979 -7.199881169514139,0.6999884470360979 zm-11.699806900460477,-0.0999983495765855 c-0.8999851461892676,2.4999587394146316 2.4999587394146316,15.699740883523887 5.699905925865361,22.299631955578516 c1.799970292378536,3.5999405847570696 4.799920779676093,8.299863014856577 6.799887771207798,10.499826705541453 l3.5999405847570696,4.099932332639996 l2.7999537881443874,-2.999950487297558 l2.8999521377209727,-2.999950487297558 l-3.5999405847570696,-4.8999191292526785 c-1.89996864195512,-2.699955438567802 -4.3999273813697535,-6.899886120784384 -5.399910877135604,-9.399844860199014 c-1.89996864195512,-4.299929031793166 -2.3999603898380464,-6.299896023324871 -3.6999389343336553,-14.199765639875107 c-0.5999900974595128,-3.5999405847570696 -0.6999884470360979,-3.6999389343336553 -4.599924080522922,-3.6999389343336553 c-2.3999603898380464,0 -4.199930682216581,0.4999917478829266 -4.499925730946337,1.2999785444956085 zm76.19874237735797,5.199914177982434 l-0.5999900974595128,2.999950487297558 l1.499975243648779,-2.4999587394146316 c0.7999867966126821,-1.3999768940721937 1.3999768940721937,-3.399943885603899 1.3999768940721937,-4.499925730946337 c0,-1.5999735932253643 -0.0999983495765855,-1.6999719428019495 -0.7999867966126821,-0.4999917478829266 c-0.4999917478829266,0.7999867966126821 -1.099981845342438,2.7999537881443874 -1.499975243648779,4.499925730946337 zm0.4999917478829266,6.699889421631212 c-1.2999785444956085,2.0999653411082906 -1.9999669915317053,3.79993728391024 -1.6999719428019495,3.79993728391024 c0.6999884470360979,0 5.599907576288775,-7.59987456782048 5.599907576288775,-8.699856413162918 c0,-0.9999834957658521 -1.3999768940721937,0.6999884470360979 -3.8999356334868267,4.8999191292526785 zm-41.49931507428288,8.599858063586332 c-2.299962040261461,2.4999587394146316 -2.4999587394146316,3.0999488368741432 -1.1999801949190232,4.099932332639996 c0.7999867966126821,0.6999884470360979 2.0999653411082906,0.8999851461892676 2.699955438567802,0.4999917478829266 c0.7999867966126821,-0.3999933983063414 0.8999851461892676,-0.2999950487297558 0.4999917478829266,0.4999917478829266 c-0.9999834957658521,1.5999735932253643 5.7999042754419445,4.299929031793166 8.899853112316089,3.4999422351804843 c1.9999669915317053,-0.4999917478829266 2.3999603898380464,-0.2999950487297558 1.89996864195512,0.9999834957658521 c-0.4999917478829266,1.2999785444956085 0.0999983495765855,1.5999735932253643 2.999950487297558,1.5999735932253643 c3.399943885603899,0 3.5999405847570696,-0.19999669915317086 3.5999405847570696,-3.0999488368741432 c0,-2.4999587394146316 -0.3999933983063414,-2.999950487297558 -1.799970292378536,-2.599957088991217 c-3.0999488368741432,0.8999851461892676 -3.6999389343336553,0.8999851461892676 -5.999900974595116,0.7999867966126821 c-1.3999768940721937,-0.0999983495765855 -2.199963690684876,-0.5999900974595128 -1.89996864195512,-1.3999768940721937 c0.3999933983063414,-1.099981845342438 -4.8999191292526785,-7.699872917397066 -6.299896023324871,-7.699872917397066 c-0.2999950487297558,0 -1.89996864195512,1.2999785444956085 -3.399943885603899,2.7999537881443874 zm33.49944710815606,3.1999471864507285 c-2.7999537881443874,0 -4.499925730946337,0.6999884470360979 -6.499892722478043,2.599957088991217 c-1.9999669915317053,2.0999653411082906 -2.8999521377209727,2.3999603898380464 -3.8999356334868267,1.499975243648779 c-1.5999735932253643,-1.2999785444956085 -2.699955438567802,-0.4999917478829266 -2.699955438567802,2.0999653411082906 c0,4.199930682216581 12.299796997919987,1.099981845342438 18.299697972515105,-4.599924080522922 c1.499975243648779,-1.3999768940721937 2.4999587394146316,-3.0999488368741432 2.199963690684876,-3.5999405847570696 c-0.3999933983063414,-0.5999900974595128 -1.1999801949190232,-0.3999933983063414 -2.0999653411082906,0.4999917478829266 c-0.8999851461892676,0.7999867966126821 -3.1999471864507285,1.499975243648779 -5.2999125275590195,1.499975243648779 zm-49.19918799167995,0.7999867966126821 c1.1999801949190232,2.299962040261461 3.9999339830634106,4.699922430099507 4.599924080522922,3.9999339830634106 c0.4999917478829266,-0.4999917478829266 -4.299929031793166,-5.7999042754419445 -5.199914177982434,-5.7999042754419445 c-0.19999669915317086,0 0.0999983495765855,0.7999867966126821 0.5999900974595128,1.799970292378536 zm10.099833307235112,4.199930682216581 c0.5999900974595128,1.099981845342438 1.499975243648779,2.199963690684876 1.9999669915317053,2.4999587394146316 c1.5999735932253643,0.9999834957658521 1.1999801949190232,2.299962040261461 -0.7999867966126821,2.699955438567802 c-4.499925730946337,0.9999834957658521 14.59975903818145,8.799854762739503 21.499645158965834,8.799854762739503 c2.0999653411082906,0 2.299962040261461,-0.4999917478829266 2.299962040261461,-4.499925730946337 c0,-4.299929031793166 -0.0999983495765855,-4.499925730946337 -2.999950487297558,-4.499925730946337 c-3.8999356334868267,0 -12.799788745802914,-3.399943885603899 -16.999719428019496,-6.499892722478043 c-2.4999587394146316,-1.799970292378536 -3.6999389343336553,-2.199963690684876 -4.599924080522922,-1.3999768940721937 c-0.9999834957658521,0.7999867966126821 -1.099981845342438,1.5999735932253643 -0.3999933983063414,2.8999521377209727 zm43.29928536666142,0.6999884470360979 c-2.299962040261461,1.2999785444956085 -6.999884470360969,2.999950487297558 -10.499826705541453,3.6999389343336553 c-6.299896023324871,1.2999785444956085 -6.299896023324871,1.2999785444956085 -6.5998910720546275,4.8999191292526785 c-0.19999669915317086,2.699955438567802 0.0999983495765855,3.8999356334868267 1.2999785444956085,4.299929031793166 c2.3999603898380464,0.9999834957658521 12.199798648343403,-1.3999768940721937 17.799706224632178,-4.299929031793166 c4.499925730946337,-2.199963690684876 4.699922430099507,-2.599957088991217 3.0999488368741432,-3.6999389343336553 c-1.6999719428019495,-1.2999785444956085 -1.5999735932253643,-1.3999768940721937 0.5999900974595128,-2.0999653411082906 c1.499975243648779,-0.4999917478829266 2.4999587394146316,-0.3999933983063414 2.7999537881443874,0.2999950487297558 c0.3999933983063414,1.2999785444956085 3.1999471864507285,0.3999933983063414 3.1999471864507285,-0.9999834957658521 c0,-1.89996864195512 -4.3999273813697535,-5.599907576288775 -5.89990262501853,-4.9999174788292615 c-0.8999851461892676,0.2999950487297558 -3.4999422351804843,1.5999735932253643 -5.7999042754419445,2.8999521377209727 zm10.299830006388282,5.7999042754419445 c-4.799920779676093,3.6999389343336553 -13.399778843262425,7.299879519090725 -20.599660012776564,8.699856413162918 l-6.499892722478043,1.2999785444956085 l-0.2999950487297558,3.79993728391024 c-0.19999669915317086,2.7999537881443874 0.0999983495765855,3.8999356334868267 1.3999768940721937,4.3999273813697535 c2.699955438567802,0.9999834957658521 14.59975903818145,-1.3999768940721937 20.999653411082907,-4.199930682216581 c6.1998976737482865,-2.699955438567802 14.299763989451693,-8.399861364433162 14.399762339028278,-9.89983660808194 c0,-0.8999851461892676 -4.8999191292526785,-6.5998910720546275 -5.7999042754419445,-6.5998910720546275 c-0.19999669915317086,0 -1.799970292378536,1.099981845342438 -3.5999405847570696,2.4999587394146316 zm-62.99896023324872,0.3999933983063414 l-2.699955438567802,2.7999537881443874 l3.79993728391024,3.1999471864507285 c7.199881169514139,5.999900974595116 22.59962700430827,12.099800298766818 30.499496620858505,12.099800298766818 c2.599957088991217,0 2.7999537881443874,-0.2999950487297558 2.7999537881443874,-4.299929031793166 l0,-4.3999273813697535 l-6.499892722478043,-1.1999801949190232 c-7.299879519090725,-1.2999785444956085 -15.19974913564096,-4.599924080522922 -20.49966166319998,-8.499859714009748 c-1.89996864195512,-1.3999768940721937 -3.79993728391024,-2.4999587394146316 -4.099932332639996,-2.599957088991217 c-0.2999950487297558,0 -1.799970292378536,1.2999785444956085 -3.2999455360273138,2.8999521377209727 z" id="svg_2" class="" >
		<animateTransform attributeName="transform"
                          attributeType="XML"
                          type="rotate"
                          from="0 0 0"
                          to="-360 0 0"
                          dur="4s"
                          repeatCount="indefinite"/>

 </path>
</g>
<g transform='translate(355 75)'>

<path d="M-70.6316009217449,-70.07896449078459 c0.9999834957658521,1.1999801949190232 0.9999834957658521,1.499975243648779 -0.3999933983063414,1.499975243648779 c-0.8999851461892676,0 -1.5999735932253643,-0.6999884470360979 -1.5999735932253643,-1.499975243648779 c0,-0.7999867966126821 0.19999669915317086,-1.499975243648779 0.3999933983063414,-1.499975243648779 c0.19999669915317086,0 0.8999851461892676,0.6999884470360979 1.5999735932253643,1.499975243648779 z" id="svg_3" class="selected"/>
<path d="M11.883086177775795,-67.07143017904616 c1.099981845342438,3.8999356334868267 1.5999735932253643,4.499925730946337 4.699922430099507,5.099915828405848 c2.999950487297558,0.5999900974595128 3.8999356334868267,0.19999669915317086 6.5998910720546275,-2.3999603898380464 c1.799970292378536,-1.799970292378536 3.6999389343336553,-2.7999537881443874 4.3999273813697535,-2.3999603898380464 c0.5999900974595128,0.3999933983063414 1.3999768940721937,2.7999537881443874 1.799970292378536,5.399910877135604 c0.4999917478829266,3.399943885603899 1.3999768940721937,5.199914177982434 3.0999488368741432,6.299896023324871 c2.199963690684876,1.3999768940721937 2.699955438567802,1.3999768940721937 6.499892722478043,-0.5999900974595128 c3.4999422351804843,-1.6999719428019495 4.3999273813697535,-1.89996864195512 5.499909226712189,-0.6999884470360979 c0.9999834957658521,0.9999834957658521 1.099981845342438,2.199963690684876 0.19999669915317086,5.599907576288775 c-0.8999851461892676,3.6999389343336553 -0.7999867966126821,4.499925730946337 0.7999867966126821,6.299896023324871 c1.5999735932253643,1.799970292378536 2.599957088991217,1.9999669915317053 6.999884470360969,1.499975243648779 c6.299896023324871,-0.6999884470360979 7.299879519090725,0.6999884470360979 4.299929031793166,5.89990262501853 c-1.799970292378536,2.999950487297558 -1.9999669915317053,3.9999339830634106 -0.8999851461892676,6.399894372901457 c0.9999834957658521,2.3999603898380464 1.89996864195512,2.999950487297558 5.999900974595116,3.4999422351804843 c2.599957088991217,0.3999933983063414 4.9999174788292615,1.2999785444956085 5.2999125275590195,1.9999669915317053 c0.2999950487297558,0.7999867966126821 -0.7999867966126821,2.599957088991217 -2.3999603898380464,4.199930682216581 c-4.8999191292526785,4.699922430099507 -3.4999422351804843,10.499826705541453 2.999950487297558,11.899803599613646 c4.599924080522922,0.9999834957658521 4.699922430099507,4.099932332639996 0.0999983495765855,6.5998910720546275 c-2.699955438567802,1.5999735932253643 -3.9999339830634106,2.999950487297558 -4.3999273813697535,5.2999125275590195 c-0.6999884470360979,3.1999471864507285 -0.0999983495765855,3.9999339830634106 5.2999125275590195,7.59987456782048 c3.1999471864507285,2.199963690684876 1.799970292378536,4.699922430099507 -3.0999488368741432,5.499909226712189 c-3.1999471864507285,0.5999900974595128 -4.199930682216581,1.2999785444956085 -5.2999125275590195,3.8999356334868267 c-1.1999801949190232,2.7999537881443874 -1.099981845342438,3.399943885603899 1.099981845342438,6.299896023324871 c1.2999785444956085,1.6999719428019495 2.3999603898380464,4.099932332639996 2.3999603898380464,5.199914177982434 c0,1.799970292378536 -0.5999900974595128,2.0999653411082906 -4.799920779676093,2.0999653411082906 c-3.6999389343336553,0 -5.399910877135604,0.4999917478829266 -6.699889421631212,1.9999669915317053 c-1.799970292378536,1.9999669915317053 -1.799970292378536,2.299962040261461 -0.19999669915317086,6.699889421631212 c2.3999603898380464,6.299896023324871 1.1999801949190232,7.699872917397066 -4.8999191292526785,5.599907576288775 c-4.299929031793166,-1.499975243648779 -4.599924080522922,-1.3999768940721937 -6.799887771207798,0.5999900974595128 c-1.89996864195512,1.799970292378536 -2.199963690684876,2.8999521377209727 -1.799970292378536,6.999884470360969 c0.4999917478829266,5.999900974595116 -1.099981845342438,6.899886120784384 -6.099899324171702,3.5999405847570696 c-2.999950487297558,-2.0999653411082906 -3.79993728391024,-2.299962040261461 -6.5998910720546275,-1.1999801949190232 c-2.699955438567802,0.9999834957658521 -3.1999471864507285,1.6999719428019495 -3.6999389343336553,5.89990262501853 c-0.7999867966126821,5.7999042754419445 -2.599957088991217,6.299896023324871 -6.899886120784384,1.799970292378536 c-4.3999273813697535,-4.599924080522922 -8.399861364433162,-3.8999356334868267 -10.899820103847794,1.6999719428019495 c-2.4999587394146316,5.499909226712189 -4.8999191292526785,5.599907576288775 -7.59987456782048,0.2999950487297558 c-2.999950487297558,-5.89990262501853 -6.399894372901457,-6.399894372901457 -10.699823404694623,-1.6999719428019495 c-4.9999174788292615,5.599907576288775 -6.1998976737482865,5.099915828405848 -7.799871266973651,-2.999950487297558 c-0.3999933983063414,-2.199963690684876 -1.499975243648779,-3.4999422351804843 -3.5999405847570696,-4.299929031793166 c-2.599957088991217,-1.099981845342438 -3.1999471864507285,-0.9999834957658521 -6.299896023324871,1.3999768940721937 c-4.8999191292526785,3.6999389343336553 -6.699889421631212,2.699955438567802 -6.499892722478043,-3.4999422351804843 c0.19999669915317086,-3.8999356334868267 -0.19999669915317086,-5.199914177982434 -1.6999719428019495,-6.399894372901457 c-2.299962040261461,-1.799970292378536 -3.79993728391024,-1.799970292378536 -8.099866315703407,-0.2999950487297558 c-4.8999191292526785,1.799970292378536 -6.099899324171702,0.0999983495765855 -3.9999339830634106,-5.2999125275590195 c1.5999735932253643,-3.9999339830634106 1.5999735932253643,-4.299929031793166 -0.3999933983063414,-6.999884470360969 c-1.799970292378536,-2.599957088991217 -2.3999603898380464,-2.7999537881443874 -6.399894372901457,-2.199963690684876 c-5.7999042754419445,0.7999867966126821 -6.799887771207798,-1.2999785444956085 -3.1999471864507285,-6.399894372901457 c2.299962040261461,-3.1999471864507285 2.4999587394146316,-3.8999356334868267 1.2999785444956085,-6.5998910720546275 c-0.8999851461892676,-2.3999603898380464 -2.0999653411082906,-3.2999455360273138 -5.599907576288775,-4.099932332639996 c-5.699905925865361,-1.3999768940721937 -6.1998976737482865,-3.4999422351804843 -1.499975243648779,-6.699889421631212 c2.7999537881443874,-1.89996864195512 3.4999422351804843,-3.0999488368741432 3.4999422351804843,-5.599907576288775 c0,-2.699955438567802 -0.5999900974595128,-3.5999405847570696 -3.2999455360273138,-4.8999191292526785 c-6.799887771207798,-3.4999422351804843 -6.899886120784384,-5.499909226712189 -0.5999900974595128,-7.999867966126821 c2.8999521377209727,-1.1999801949190232 3.8999356334868267,-2.299962040261461 4.3999273813697535,-4.599924080522922 c0.5999900974595128,-2.4999587394146316 0.19999669915317086,-3.4999422351804843 -2.3999603898380464,-6.1998976737482865 c-4.499925730946337,-4.599924080522922 -4.099932332639996,-6.1998976737482865 1.6999719428019495,-6.999884470360969 c3.8999356334868267,-0.4999917478829266 5.099915828405848,-1.099981845342438 5.999900974595116,-3.1999471864507285 c1.5999735932253643,-3.399943885603899 1.499975243648779,-4.099932332639996 -0.8999851461892676,-7.4998762182438945 c-3.1999471864507285,-4.499925730946337 -1.89996864195512,-6.1998976737482865 3.8999356334868267,-5.399910877135604 c4.099932332639996,0.4999917478829266 4.9999174788292615,0.2999950487297558 6.899886120784384,-1.6999719428019495 c1.9999669915317053,-2.0999653411082906 2.0999653411082906,-2.699955438567802 0.9999834957658521,-6.499892722478043 c-1.5999735932253643,-5.89990262501853 -0.19999669915317086,-7.199881169514139 5.399910877135604,-4.9999174788292615 c3.6999389343336553,1.499975243648779 4.3999273813697535,1.499975243648779 6.999884470360969,0.0999983495765855 c2.599957088991217,-1.2999785444956085 2.8999521377209727,-1.9999669915317053 2.8999521377209727,-6.299896023324871 c0,-6.099899324171702 1.2999785444956085,-6.699889421631212 6.1998976737482865,-2.8999521377209727 c3.1999471864507285,2.4999587394146316 4.299929031793166,2.7999537881443874 6.499892722478043,2.0999653411082906 c2.199963690684876,-0.6999884470360979 3.0999488368741432,-1.9999669915317053 4.199930682216581,-5.599907576288775 c1.799970292378536,-5.7999042754419445 3.8999356334868267,-6.099899324171702 7.299879519090725,-0.8999851461892676 c2.3999603898380464,3.4999422351804843 2.7999537881443874,3.6999389343336553 6.5998910720546275,3.399943885603899 c3.399943885603899,-0.2999950487297558 4.499925730946337,-0.9999834957658521 6.099899324171702,-3.79993728391024 c2.8999521377209727,-4.8999191292526785 5.499909226712189,-4.499925730946337 7.099882819937553,1.099981845342438 zm-20.799656711929735,11.499810201307305 c-3.399943885603899,0.5999900974595128 -8.699856413162918,1.9999669915317053 -11.699806900460477,3.0999488368741432 c-5.699905925865361,2.0999653411082906 -17.499711175902423,9.4998432097756 -17.499711175902423,10.899820103847794 c0,1.499975243648779 9.399844860199014,6.699889421631212 18.9996864195512,10.499826705541453 c5.199914177982434,2.0999653411082906 9.89983660808194,4.199930682216581 10.399828355964868,4.699922430099507 c0.5999900974595128,0.3999933983063414 1.89996864195512,0.7999867966126821 2.999950487297558,0.7999867966126821 c1.1999801949190232,0 1.5999735932253643,-0.2999950487297558 0.9999834957658521,-0.7999867966126821 c-1.499975243648779,-0.9999834957658521 -1.099981845342438,-10.699823404694623 0.4999917478829266,-12.599792046649743 c1.799970292378536,-2.0999653411082906 5.399910877135604,-1.9999669915317053 7.299879519090725,0.0999983495765855 c1.6999719428019495,1.89996864195512 1.9999669915317053,9.699839908928771 0.4999917478829266,11.999801949190232 c-0.9999834957658521,1.499975243648779 3.2999455360273138,1.799970292378536 4.8999191292526785,0.3999933983063414 c0.4999917478829266,-0.4999917478829266 5.199914177982434,-2.699955438567802 10.399828355964868,-4.8999191292526785 c5.199914177982434,-2.0999653411082906 11.699806900460477,-5.2999125275590195 14.299763989451693,-6.999884470360969 l4.8999191292526785,-3.0999488368741432 l-4.3999273813697535,-3.1999471864507285 c-6.099899324171702,-4.499925730946337 -15.499744184370716,-8.699856413162918 -22.899622053038026,-10.399828355964868 c-7.8998696165502365,-1.6999719428019495 -11.699806900460477,-1.799970292378536 -19.699674866587298,-0.4999917478829266 zm43.69927876496776,19.79967321616388 c-18.899688069974616,9.999834957658527 -25.399580792452657,14.59975903818145 -27.399547783984364,19.499678167434126 c-2.3999603898380464,5.7999042754419445 -2.199963690684876,8.099866315703407 1.799970292378536,18.299697972515105 c1.9999669915317053,4.8999191292526785 4.199930682216581,12.099800298766818 4.9999174788292615,15.899737582677057 c0.7999867966126821,3.8999356334868267 2.199963690684876,8.499859714009748 3.0999488368741432,10.299830006388282 c0.8999851461892676,1.799970292378536 2.599957088991217,6.1998976737482865 3.6999389343336553,9.799838258505357 c1.099981845342438,3.5999405847570696 2.8999521377209727,7.3998778686673115 3.9999339830634106,8.499859714009748 c1.89996864195512,1.89996864195512 1.9999669915317053,1.89996864195512 6.299896023324871,-0.9999834957658521 c10.299830006388282,-7.099882819937553 19.699674866587298,-20.89965506150632 22.59962700430827,-33.099453709849726 c2.8999521377209727,-11.899803599613646 1.099981845342438,-26.99955438567802 -4.499925730946337,-37.9993728391024 c-2.199963690684876,-4.199930682216581 -8.099866315703407,-12.999785444956085 -8.799854762739503,-12.999785444956085 c-0.19999669915317086,0 -2.7999537881443874,1.2999785444956085 -5.7999042754419445,2.7999537881443874 zm-78.99869616550237,0.4999917478829266 c-7.999867966126821,9.999834957658527 -11.899803599613646,21.499645158965834 -11.899803599613646,34.89942400222826 c0,15.999735932253643 4.9999174788292615,27.89953953186729 16.69972437928974,39.49934808275118 c7.4998762182438945,7.4998762182438945 11.499810201307305,9.599841559352186 13.799772241568768,7.199881169514139 c1.799970292378536,-1.89996864195512 8.699856413162918,-21.399646809389246 11.79980525003706,-33.39944875857948 c0.7999867966126821,-3.2999455360273138 2.8999521377209727,-9.799838258505357 4.599924080522922,-14.399762339028278 c3.0999488368741432,-8.299863014856577 3.0999488368741432,-8.499859714009748 1.5999735932253643,-13.199782144109255 c-2.0999653411082906,-6.099899324171702 -4.799920779676093,-8.099866315703407 -29.999504872975578,-22.099635256425344 c-3.9999339830634106,-2.199963690684876 -3.5999405847570696,-2.199963690684876 -6.5998910720546275,1.499975243648779 zm39.09935468444484,47.89920944718434 c-1.5999735932253643,2.8999521377209727 -4.3999273813697535,8.699856413162918 -6.099899324171702,12.799788745802914 c-1.799970292378536,4.099932332639996 -4.699922430099507,9.89983660808194 -6.499892722478043,12.799788745802914 c-1.89996864195512,2.8999521377209727 -3.399943885603899,5.999900974595116 -3.399943885603899,6.899886120784384 c0,0.8999851461892676 -0.7999867966126821,2.199963690684876 -1.799970292378536,2.8999521377209727 c-1.499975243648779,1.1999801949190232 -1.499975243648779,1.499975243648779 -0.19999669915317086,2.3999603898380464 c7.199881169514139,4.8999191292526785 27.499546133560948,6.099899324171702 39.69934478190435,2.199963690684876 c3.9999339830634106,-1.1999801949190232 7.299879519090725,-2.699955438567802 7.299879519090725,-3.1999471864507285 c0,-0.5999900974595128 -0.3999933983063414,-0.9999834957658521 -0.8999851461892676,-0.9999834957658521 c-1.099981845342438,0 -4.799920779676093,-6.699889421631212 -12.599792046649743,-22.899622053038026 c-6.799887771207798,-14.099767290298523 -9.29984651062243,-18.099701273361934 -11.099816803000964,-18.099701273361934 c-0.6999884470360979,0 -2.699955438567802,2.3999603898380464 -4.3999273813697535,5.199914177982434 z" id="svg_4" class="" >
		<animateTransform attributeName="transform"
                          attributeType="XML"
                          type="rotate"
                          from="0 0 0"
                          to="360 0 0"
                          dur="4s"
                          repeatCount="indefinite"/>

 </path>
</g>
<g transform='translate(75 75)'>
<path d="M13.867416993527684,-66.87143457168227 c1.099981845342438,3.5999405847570696 1.9999669915317053,4.8999191292526785 4.199930682216581,5.599907576288775 c2.199963690684876,0.6999884470360979 3.2999455360273138,0.3999933983063414 6.499892722478043,-2.0999653411082906 c4.8999191292526785,-3.79993728391024 6.1998976737482865,-3.1999471864507285 6.1998976737482865,2.8999521377209727 c0,4.299929031793166 0.2999950487297558,4.9999174788292615 2.8999521377209727,6.299896023324871 c2.599957088991217,1.3999768940721937 3.2999455360273138,1.3999768940721937 6.999884470360969,-0.0999983495765855 c5.599907576288775,-2.199963690684876 6.999884470360969,-0.8999851461892676 5.399910877135604,4.9999174788292615 c-1.099981845342438,3.79993728391024 -0.9999834957658521,4.3999273813697535 0.9999834957658521,6.499892722478043 c1.89996864195512,1.9999669915317053 2.7999537881443874,2.199963690684876 6.899886120784384,1.6999719428019495 c5.7999042754419445,-0.7999867966126821 7.099882819937553,0.8999851461892676 3.8999356334868267,5.399910877135604 c-2.3999603898380464,3.399943885603899 -2.4999587394146316,4.099932332639996 -0.8999851461892676,7.4998762182438945 c0.8999851461892676,2.0999653411082906 2.0999653411082906,2.699955438567802 5.999900974595116,3.1999471864507285 c5.7999042754419445,0.7999867966126821 6.1998976737482865,2.3999603898380464 1.6999719428019495,6.999884470360969 c-2.599957088991217,2.699955438567802 -2.999950487297558,3.6999389343336553 -2.3999603898380464,6.1998976737482865 c0.4999917478829266,2.299962040261461 1.499975243648779,3.399943885603899 4.3999273813697535,4.599924080522922 c6.299896023324871,2.4999587394146316 6.1998976737482865,4.499925730946337 -0.6999884470360979,7.999867966126821 c-2.599957088991217,1.2999785444956085 -3.1999471864507285,2.199963690684876 -3.1999471864507285,4.8999191292526785 c0,2.4999587394146316 0.6999884470360979,3.6999389343336553 3.4999422351804843,5.599907576288775 c4.699922430099507,3.1999471864507285 4.199930682216581,5.2999125275590195 -1.499975243648779,6.699889421631212 c-3.4999422351804843,0.7999867966126821 -4.699922430099507,1.6999719428019495 -5.599907576288775,4.099932332639996 c-1.1999801949190232,2.699955438567802 -0.9999834957658521,3.399943885603899 1.2999785444956085,6.5998910720546275 c3.5999405847570696,5.099915828405848 2.599957088991217,7.199881169514139 -3.1999471864507285,6.399894372901457 c-3.9999339830634106,-0.5999900974595128 -4.599924080522922,-0.3999933983063414 -6.399894372901457,2.199963690684876 c-1.9999669915317053,2.699955438567802 -1.9999669915317053,2.999950487297558 -0.3999933983063414,6.999884470360969 c2.0999653411082906,5.399910877135604 0.8999851461892676,7.099882819937553 -3.9999339830634106,5.2999125275590195 c-4.299929031793166,-1.499975243648779 -5.7999042754419445,-1.499975243648779 -8.099866315703407,0.2999950487297558 c-1.499975243648779,1.1999801949190232 -1.89996864195512,2.4999587394146316 -1.6999719428019495,6.399894372901457 c0.19999669915317086,6.1998976737482865 -1.5999735932253643,7.199881169514139 -6.499892722478043,3.4999422351804843 c-3.0999488368741432,-2.3999603898380464 -3.6999389343336553,-2.4999587394146316 -6.299896023324871,-1.3999768940721937 c-2.0999653411082906,0.7999867966126821 -3.1999471864507285,2.0999653411082906 -3.5999405847570696,4.299929031793166 c-1.5999735932253643,8.099866315703407 -2.7999537881443874,8.599858063586332 -7.799871266973651,2.999950487297558 c-4.299929031793166,-4.699922430099507 -7.699872917397066,-4.199930682216581 -10.699823404694623,1.6999719428019495 c-2.699955438567802,5.2999125275590195 -5.099915828405848,5.199914177982434 -7.59987456782048,-0.2999950487297558 c-2.4999587394146316,-5.599907576288775 -6.499892722478043,-6.299896023324871 -10.899820103847794,-1.6999719428019495 c-4.299929031793166,4.499925730946337 -6.099899324171702,3.9999339830634106 -6.899886120784384,-1.799970292378536 c-0.4999917478829266,-4.199930682216581 -0.9999834957658521,-4.8999191292526785 -3.6999389343336553,-5.89990262501853 c-2.7999537881443874,-1.099981845342438 -3.5999405847570696,-0.8999851461892676 -6.5998910720546275,1.1999801949190232 c-4.9999174788292615,3.2999455360273138 -6.5998910720546275,2.3999603898380464 -6.099899324171702,-3.5999405847570696 c0.3999933983063414,-4.099932332639996 0.0999983495765855,-5.199914177982434 -1.799970292378536,-6.999884470360969 c-2.199963690684876,-1.9999669915317053 -2.4999587394146316,-2.0999653411082906 -6.799887771207798,-0.5999900974595128 c-6.099899324171702,2.0999653411082906 -7.299879519090725,0.6999884470360979 -4.8999191292526785,-5.599907576288775 c1.5999735932253643,-4.3999273813697535 1.5999735932253643,-4.699922430099507 -0.19999669915317086,-6.699889421631212 c-1.2999785444956085,-1.499975243648779 -2.999950487297558,-1.9999669915317053 -6.699889421631212,-1.9999669915317053 c-4.199930682216581,0 -4.799920779676093,-0.2999950487297558 -4.799920779676093,-2.0999653411082906 c0,-1.099981845342438 1.099981845342438,-3.4999422351804843 2.3999603898380464,-5.199914177982434 c2.199963690684876,-2.8999521377209727 2.299962040261461,-3.4999422351804843 1.099981845342438,-6.299896023324871 c-1.099981845342438,-2.599957088991217 -2.0999653411082906,-3.2999455360273138 -5.2999125275590195,-3.8999356334868267 c-4.8999191292526785,-0.7999867966126821 -6.299896023324871,-3.2999455360273138 -3.0999488368741432,-5.499909226712189 c5.399910877135604,-3.5999405847570696 5.999900974595116,-4.3999273813697535 5.2999125275590195,-7.59987456782048 c-0.3999933983063414,-2.299962040261461 -1.6999719428019495,-3.6999389343336553 -4.3999273813697535,-5.2999125275590195 c-4.599924080522922,-2.4999587394146316 -4.499925730946337,-5.599907576288775 0.0999983495765855,-6.5998910720546275 c6.499892722478043,-1.3999768940721937 7.8998696165502365,-7.199881169514139 2.999950487297558,-11.899803599613646 c-1.5999735932253643,-1.5999735932253643 -2.699955438567802,-3.399943885603899 -2.3999603898380464,-4.199930682216581 c0.2999950487297558,-0.6999884470360979 2.699955438567802,-1.5999735932253643 5.2999125275590195,-1.9999669915317053 c4.099932332639996,-0.4999917478829266 4.9999174788292615,-1.099981845342438 5.999900974595116,-3.4999422351804843 c1.099981845342438,-2.3999603898380464 0.8999851461892676,-3.399943885603899 -0.8999851461892676,-6.399894372901457 c-2.999950487297558,-5.199914177982434 -1.9999669915317053,-6.5998910720546275 4.299929031793166,-5.89990262501853 c4.3999273813697535,0.4999917478829266 5.399910877135604,0.2999950487297558 6.999884470360969,-1.499975243648779 c1.5999735932253643,-1.799970292378536 1.6999719428019495,-2.599957088991217 0.7999867966126821,-6.299896023324871 c-0.8999851461892676,-3.399943885603899 -0.7999867966126821,-4.599924080522922 0.19999669915317086,-5.599907576288775 c1.099981845342438,-1.1999801949190232 1.9999669915317053,-0.9999834957658521 5.499909226712189,0.6999884470360979 c3.79993728391024,1.9999669915317053 4.299929031793166,1.9999669915317053 6.499892722478043,0.5999900974595128 c1.6999719428019495,-1.099981845342438 2.599957088991217,-2.8999521377209727 3.0999488368741432,-6.299896023324871 c0.3999933983063414,-2.599957088991217 1.1999801949190232,-4.9999174788292615 1.799970292378536,-5.399910877135604 c0.6999884470360979,-0.3999933983063414 2.599957088991217,0.5999900974595128 4.3999273813697535,2.3999603898380464 c2.699955438567802,2.599957088991217 3.5999405847570696,2.999950487297558 6.5998910720546275,2.3999603898380464 c3.0999488368741432,-0.5999900974595128 3.5999405847570696,-1.1999801949190232 4.699922430099507,-5.099915828405848 c1.5999735932253643,-5.599907576288775 4.199930682216581,-5.999900974595116 7.099882819937553,-1.099981845342438 c1.5999735932253643,2.7999537881443874 2.699955438567802,3.4999422351804843 6.099899324171702,3.79993728391024 c3.79993728391024,0.2999950487297558 4.199930682216581,0.0999983495765855 6.5998910720546275,-3.399943885603899 c3.399943885603899,-5.199914177982434 5.499909226712189,-4.8999191292526785 7.299879519090725,0.8999851461892676 zm-25.599577491605828,11.79980525003706 c-9.599841559352186,1.9999669915317053 -20.399663313623392,7.59987456782048 -27.299549434407776,13.999768940721937 c-6.499892722478043,6.1998976737482865 -6.1998976737482865,7.3998778686673115 2.299962040261461,7.59987456782048 c2.699955438567802,0 6.999884470360969,0.2999950487297558 9.4998432097756,0.4999917478829266 c5.999900974595116,0.5999900974595128 18.699691370821444,-1.499975243648779 21.199650110236078,-3.4999422351804843 c1.6999719428019495,-1.3999768940721937 1.799970292378536,-1.9999669915317053 0.6999884470360979,-4.3999273813697535 c-0.7999867966126821,-1.799970292378536 -0.8999851461892676,-3.6999389343336553 -0.2999950487297558,-5.89990262501853 c0.7999867966126821,-2.699955438567802 1.499975243648779,-3.399943885603899 3.9999339830634106,-3.5999405847570696 c4.8999191292526785,-0.4999917478829266 6.5998910720546275,3.0999488368741432 4.8999191292526785,10.299830006388282 c-0.7999867966126821,3.5999405847570696 0.6999884470360979,4.599924080522922 9.4998432097756,6.399894372901457 c5.999900974595116,1.1999801949190232 26.099569239488755,0.6999884470360979 28.699526328479973,-0.6999884470360979 c3.4999422351804843,-1.9999669915317053 -11.19981515257755,-13.999768940721937 -22.299631955578516,-18.199699622938518 c-10.699823404694623,-3.9999339830634106 -20.199666614470225,-4.699922430099507 -30.899490019164848,-2.4999587394146316 zm43.799277114544346,26.699559336948266 c-2.3999603898380464,0.5999900974595128 -5.699905925865361,0.7999867966126821 -7.3998778686673115,0.3999933983063414 c-5.499909226712189,-1.099981845342438 -13.799772241568768,0.3999933983063414 -15.099750786064375,2.7999537881443874 c-0.6999884470360979,1.2999785444956085 -1.1999801949190232,12.399795347496573 -1.3999768940721937,31.599478466200942 c-0.0999983495765855,16.799722728866325 -0.6999884470360979,31.599478466200942 -1.3999768940721937,34.39943225434533 c-1.499975243648779,6.699889421631212 -0.5999900974595128,10.099833307235112 2.999950487297558,11.59980855088389 c3.5999405847570696,1.499975243648779 6.1998976737482865,0.8999851461892676 14.899754086911205,-3.2999455360273138 c12.8997870953795,-6.1998976737482865 24.89958904456973,-20.999653411082907 28.599527978903385,-35.199419050958014 c3.0999488368741432,-12.199798648343403 1.2999785444956085,-29.399514775516067 -4.199930682216581,-39.59934643232776 l-2.4999587394146316,-4.599924080522922 l-5.099915828405848,0.3999933983063414 c-2.8999521377209727,0.19999669915317086 -7.099882819937553,0.8999851461892676 -9.399844860199014,1.499975243648779 zm-82.69863509983601,2.599957088991217 c-3.8999356334868267,7.699872917397066 -5.89990262501853,15.999735932253643 -5.89990262501853,24.699592345416562 c-0.0999983495765855,10.299830006388282 1.5999735932253643,17.199716127172664 6.499892722478043,26.699559336948266 c8.499859714009748,16.599726029713153 31.199485067894603,31.69947681577753 39.399349733174596,26.299565938641926 c2.599957088991217,-1.6999719428019495 2.699955438567802,-1.89996864195512 1.89996864195512,-8.899853112316089 c-0.4999917478829266,-3.8999356334868267 -0.8999851461892676,-18.39969632209169 -0.9999834957658521,-32.09947021408387 c-0.19999669915317086,-27.199551084831192 -0.8999851461892676,-35.69941079884094 -2.999950487297558,-37.499381091219476 c-0.7999867966126821,-0.6999884470360979 -5.7999042754419445,-1.3999768940721937 -11.19981515257755,-1.5999735932253643 c-7.999867966126821,-0.2999950487297558 -19.79967321616388,-1.499975243648779 -23.499612150497537,-2.199963690684876 c-0.3999933983063414,-0.0999983495765855 -1.89996864195512,1.9999669915317053 -3.1999471864507285,4.599924080522922 zm47.09922265057166,58.3990361527258 c-0.7999867966126821,15.899737582677057 -1.3999768940721937,20.799656711929735 -2.3999603898380464,20.799656711929735 c-0.6999884470360979,0 -1.2999785444956085,0.3999933983063414 -1.2999785444956085,0.9999834957658521 c0,0.5999900974595128 2.699955438567802,0.9999834957658521 5.999900974595116,0.9999834957658521 c5.699905925865361,0 7.799871266973651,-1.099981845342438 4.3999273813697535,-2.3999603898380464 c-0.7999867966126821,-0.2999950487297558 -1.2999785444956085,-0.9999834957658521 -0.9999834957658521,-1.499975243648779 c0.4999917478829266,-0.7999867966126821 0,-9.4998432097756 -1.9999669915317053,-37.09938769291313 c-0.9999834957658521,-12.999785444956085 -2.299962040261461,-6.399894372901457 -3.6999389343336553,18.199699622938518 z" id="svg_5" class="">
		<animateTransform attributeName="transform"
                          attributeType="XML"
                          type="rotate"
                          from="0 0 0"
                          to="360 0 0"
                          dur="4s"
                          repeatCount="indefinite"/>

 </path>
</g>
               
</g>
</svg>
